<?xml version="1.0" encoding="UTF-8" standalone="no"?>
<!-- Generator: Adobe Illustrator 16.0.0, SVG Export Plug-In . SVG Version: 6.00 Build 0)  -->

<svg
   xmlns:dc="http://purl.org/dc/elements/1.1/"
   xmlns:cc="http://creativecommons.org/ns#"
   xmlns:rdf="http://www.w3.org/1999/02/22-rdf-syntax-ns#"
   xmlns:svg="http://www.w3.org/2000/svg"
   xmlns="http://www.w3.org/2000/svg"
   xmlns:sodipodi="http://sodipodi.sourceforge.net/DTD/sodipodi-0.dtd"
   xmlns:inkscape="http://www.inkscape.org/namespaces/inkscape"
   version="1.1"
   id="Capa_1"
   x="0px"
   y="0px"
   width="457.47px"
   height="457.469px"
   viewBox="0 0 457.47 457.469"
   style="enable-background:new 0 0 457.47 457.469;"
   xml:space="preserve"
   sodipodi:docname="add.svg"
   inkscape:version="0.92.1 unknown"
   inkscape:export-filename="/home/mahmood/git/bmi/Images/add.png"
   inkscape:export-xdpi="40.291256"
   inkscape:export-ydpi="40.291256"><metadata
     id="metadata41"><rdf:RDF><cc:Work
         rdf:about=""><dc:format>image/svg+xml</dc:format><dc:type
           rdf:resource="http://purl.org/dc/dcmitype/StillImage" /></cc:Work></rdf:RDF></metadata><defs
     id="defs39" /><sodipodi:namedview
     pagecolor="#ffffff"
     bordercolor="#666666"
     borderopacity="1"
     objecttolerance="10"
     gridtolerance="10"
     guidetolerance="10"
     inkscape:pageopacity="0"
     inkscape:pageshadow="2"
     inkscape:window-width="1920"
     inkscape:window-height="1009"
     id="namedview37"
     showgrid="false"
     inkscape:zoom="1.7465664"
     inkscape:cx="218.14229"
     inkscape:cy="228.73449"
     inkscape:window-x="0"
     inkscape:window-y="34"
     inkscape:window-maximized="1"
     inkscape:current-layer="g4" /><g
     id="g4"><path
       d="M 228.734,0 C 102.41,0 0,102.41 0,228.735 0,355.06 102.41,457.469 228.734,457.469 355.059,457.469 457.469,355.06 457.469,228.735 457.47,102.41 355.06,0 228.734,0 Z m 130.534,265.476 h -97.326 v 97.315 c 0,16.668 -13.506,30.186 -30.181,30.186 -16.668,0 -30.189,-13.518 -30.189,-30.186 v -97.315 h -97.309 c -16.674,0 -30.192,-13.512 -30.192,-30.187 0,-16.674 13.518,-30.188 30.192,-30.188 h 97.315 v -97.31 c 0,-16.674 13.515,-30.183 30.189,-30.183 16.675,0 30.187,13.509 30.187,30.183 v 97.315 h 97.314 c 16.669,0 30.192,13.515 30.192,30.188 0,16.676 -13.523,30.182 -30.192,30.182 z"
       id="path2"
       inkscape:connector-curvature="0"
       style="fill:#86b300;fill-opacity:1"
       inkscape:export-xdpi="40.291256"
       inkscape:export-ydpi="40.291256" /></g><g
     id="g6" /><g
     id="g8" /><g
     id="g10" /><g
     id="g12" /><g
     id="g14" /><g
     id="g16" /><g
     id="g18" /><g
     id="g20" /><g
     id="g22" /><g
     id="g24" /><g
     id="g26" /><g
     id="g28" /><g
     id="g30" /><g
     id="g32" /><g
     id="g34" /></svg>