<?xml version="1.0" encoding="UTF-8" standalone="no"?>
<!-- Svg Vector Icons : http://www.onlinewebfonts.com/icon -->

<svg
   xmlns:dc="http://purl.org/dc/elements/1.1/"
   xmlns:cc="http://creativecommons.org/ns#"
   xmlns:rdf="http://www.w3.org/1999/02/22-rdf-syntax-ns#"
   xmlns:svg="http://www.w3.org/2000/svg"
   xmlns="http://www.w3.org/2000/svg"
   xmlns:sodipodi="http://sodipodi.sourceforge.net/DTD/sodipodi-0.dtd"
   xmlns:inkscape="http://www.inkscape.org/namespaces/inkscape"
   version="1.1"
   x="0px"
   y="0px"
   viewBox="0 0 1000 1000"
   enable-background="new 0 0 1000 1000"
   xml:space="preserve"
   id="svg8"
   sodipodi:docname="error.svg"
   inkscape:export-filename="/home/mahmood/git/bmi/Images/error.png"
   inkscape:export-xdpi="141.45799"
   inkscape:export-ydpi="141.45799"
   inkscape:version="0.92.1 unknown"><defs
     id="defs12" /><sodipodi:namedview
     pagecolor="#ffffff"
     bordercolor="#666666"
     borderopacity="1"
     objecttolerance="10"
     gridtolerance="10"
     guidetolerance="10"
     inkscape:pageopacity="0"
     inkscape:pageshadow="2"
     inkscape:window-width="1920"
     inkscape:window-height="1009"
     id="namedview10"
     showgrid="false"
     inkscape:zoom="0.236"
     inkscape:cx="-383.47458"
     inkscape:cy="500"
     inkscape:window-x="0"
     inkscape:window-y="34"
     inkscape:window-maximized="1"
     inkscape:current-layer="svg8" /><metadata
     id="metadata2"> Svg Vector Icons : http://www.onlinewebfonts.com/icon <rdf:RDF><cc:Work
     rdf:about=""><dc:format>image/svg+xml</dc:format><dc:type
       rdf:resource="http://purl.org/dc/dcmitype/StillImage" /></cc:Work></rdf:RDF></metadata><g
     id="g6"
     inkscape:label="g6"
     style="fill:#760000;fill-opacity:1"><path
       d="M 500,8.7 C 229.9,8.7 10,229.1 10,499.9 c 0,271 219.9,491.4 490,491.4 270.1,0 490,-220.4 490,-491.4 C 990,229.1 770.1,8.7 500,8.7 Z m 63.6,808.6 C 548.5,833 529.2,841 506,841 c -24.3,0 -44.6,-8.3 -60.8,-24.6 -16.2,-16.3 -24.3,-35.9 -24.3,-58 0,-21.4 7.6,-39.5 22.5,-53.8 19.7,-18.8 40.2,-28.3 60.8,-28.3 22.5,0 41.8,8.1 57.8,24.1 16,16 24.1,35.7 24.1,58.5 0,23.3 -7.5,43 -22.5,58.4 z m 22.3,-455.9 -28.6,149.9 c -7.6,45.3 -16,82.3 -25,110 l -1.1,3.3 c 0,0 -9.1,0.5 -12.7,0.5 l -46,-0.2 -39,-176.5 C 419.8,379.5 411,331.3 406.6,301.1 c -2.3,-19.5 -3.3,-33.9 -3.3,-43.4 0,-2.8 0.9,-8.8 2.8,-17.8 1.8,-19.3 9.1,-34.4 22.3,-44.3 12.7,-9.5 30.2,-15.1 52.7,-16.7 12,-1.9 20,-2.8 23.7,-2.8 25.7,0 47.5,6.7 65,19.9 18.1,13.5 27.2,32.7 27.2,57.1 -0.2,21.5 -3.7,56.8 -11.1,108.3 z"
       id="path4"
       inkscape:connector-curvature="0"
       style="opacity:0.9;fill:#760000;fill-opacity:1" /></g></svg>