<?xml version="1.0" encoding="UTF-8" standalone="no"?>
<!-- Svg Vector Icons : http://www.onlinewebfonts.com/icon -->

<svg
   xmlns:dc="http://purl.org/dc/elements/1.1/"
   xmlns:cc="http://creativecommons.org/ns#"
   xmlns:rdf="http://www.w3.org/1999/02/22-rdf-syntax-ns#"
   xmlns:svg="http://www.w3.org/2000/svg"
   xmlns="http://www.w3.org/2000/svg"
   xmlns:sodipodi="http://sodipodi.sourceforge.net/DTD/sodipodi-0.dtd"
   xmlns:inkscape="http://www.inkscape.org/namespaces/inkscape"
   version="1.1"
   x="0px"
   y="0px"
   viewBox="0 0 1000 1000"
   enable-background="new 0 0 1000 1000"
   xml:space="preserve"
   id="svg20"
   sodipodi:docname="graph.svg"
   inkscape:version="0.92.1 unknown"
   inkscape:export-filename="/home/mahmood/git/BMI/Images/graph.svg.png"
   inkscape:export-xdpi="18.771908"
   inkscape:export-ydpi="18.771908"><defs
     id="defs24" /><sodipodi:namedview
     pagecolor="#ffffff"
     bordercolor="#666666"
     borderopacity="1"
     objecttolerance="10"
     gridtolerance="10"
     guidetolerance="10"
     inkscape:pageopacity="0"
     inkscape:pageshadow="2"
     inkscape:window-width="1920"
     inkscape:window-height="1009"
     id="namedview22"
     showgrid="false"
     inkscape:zoom="0.799"
     inkscape:cx="500"
     inkscape:cy="500"
     inkscape:window-x="0"
     inkscape:window-y="34"
     inkscape:window-maximized="1"
     inkscape:current-layer="svg20" /><metadata
     id="metadata2"> Svg Vector Icons : http://www.onlinewebfonts.com/icon <rdf:RDF><cc:Work
     rdf:about=""><dc:format>image/svg+xml</dc:format><dc:type
       rdf:resource="http://purl.org/dc/dcmitype/StillImage" /></cc:Work></rdf:RDF></metadata><g
     id="g18"
     style="fill:#000000;fill-opacity:1"
     inkscape:export-xdpi="18.771908"
     inkscape:export-ydpi="18.771908"><g
       transform="matrix(0.1,0,0,-0.1,0,511)"
       id="g16"
       style="fill:#000000;fill-opacity:1"><path
         d="m 8602.6,3676.7 c -721.4,-35.3 -735.9,-37.4 -783.7,-85.2 -25,-27 -54.1,-74.9 -60.3,-106 -12.5,-49.9 6.2,-79 158,-239.1 95.6,-99.8 232.8,-241.1 307.7,-311.8 L 8361.5,2805.7 6604.8,1049 C 5638.1,82.4 4839.8,-709.7 4827.3,-709.7 c -12.5,0 -492.7,474 -1070.6,1051.9 -704.7,706.8 -1076.8,1064.4 -1133,1091.4 -93.5,43.6 -187.1,49.9 -274.4,18.7 C 2272.4,1423.2 164.4,-680.6 127,-765.8 c -39.5,-91.5 -35.3,-187.1 10.4,-286.9 45.7,-97.7 195.4,-247.4 278.6,-278.6 74.8,-29.1 203.7,-29.1 278.6,-2.1 31.2,12.5 447,409.5 920.9,883.5 l 862.7,862.7 1060.2,-1062.2 c 711,-713 1087.2,-1074.8 1143.4,-1101.8 106,-49.9 185,-49.9 291,0 56.1,27 692.3,648.6 2026.9,1985.3 1068.6,1070.6 1952.1,1945.8 1964.5,1945.8 10.4,0 151.8,-133 316,-293.1 282.7,-280.6 299.3,-293.1 361.7,-280.6 174.6,35.3 176.7,43.7 226.6,1068.5 39.5,802.5 39.5,904.3 12.5,958.4 -16.6,31.2 -47.8,64.4 -64.4,72.8 -51.9,18.6 -399.1,10.3 -1214,-29.2 z"
         id="path4"
         inkscape:connector-curvature="0"
         style="fill:#000000;fill-opacity:1" /><path
         d="M 8407.2,1061.5 7852.1,506.4 v -1991.6 -1989.5 h 706.8 706.8 v 2396.9 2397 L 9114,1469 8964.3,1618.7 Z"
         id="path6"
         inkscape:connector-curvature="0"
         style="fill:#000000;fill-opacity:1" /><path
         d="M 6785.6,-560 6085,-1260.6 v -1108 -1106 h 706.8 706.8 V -1666 c 0,995.8 -2.1,1808.6 -6.2,1808.6 -2,0 -320.1,-315.9 -706.8,-702.6 z"
         id="path8"
         inkscape:connector-curvature="0"
         style="fill:#000000;fill-opacity:1" /><path
         d="m 2571.7,-1869.7 v -1604.9 h 706.8 706.8 v 900.1 898.1 l -706.8,706.8 -706.8,706.8 z"
         id="path10"
         inkscape:connector-curvature="0"
         style="fill:#000000;fill-opacity:1" /><path
         d="M 1594.7,-1048.5 C 1158.1,-1483 956.5,-1668 894.1,-1697.2 l -89.4,-37.4 v -881.4 -879.4 h 696.4 c 538.4,0 700.6,6.2 706.8,27 6.2,12.5 8.3,700.6 6.2,1525.9 l -6.2,1501 z"
         id="path12"
         inkscape:connector-curvature="0"
         style="fill:#000000;fill-opacity:1" /><path
         d="m 5492.6,-1848.9 c -245.3,-241.1 -349.2,-303.5 -550.9,-340.9 -185,-31.2 -382.5,16.7 -565.5,137.2 l -58.2,37.4 v -729.7 -729.7 h 706.8 706.8 v 925.1 c 0,509.3 -2.1,925.1 -4.2,925.1 -4.1,0 -108,-101.8 -234.8,-224.5 z"
         id="path14"
         inkscape:connector-curvature="0"
         style="fill:#000000;fill-opacity:1" /></g></g></svg>