<?xml version="1.0" encoding="UTF-8" standalone="no"?>
<!-- Generator: Adobe Illustrator 19.0.0, SVG Export Plug-In . SVG Version: 6.00 Build 0)  -->

<svg
   xmlns:dc="http://purl.org/dc/elements/1.1/"
   xmlns:cc="http://creativecommons.org/ns#"
   xmlns:rdf="http://www.w3.org/1999/02/22-rdf-syntax-ns#"
   xmlns:svg="http://www.w3.org/2000/svg"
   xmlns="http://www.w3.org/2000/svg"
   xmlns:sodipodi="http://sodipodi.sourceforge.net/DTD/sodipodi-0.dtd"
   xmlns:inkscape="http://www.inkscape.org/namespaces/inkscape"
   version="1.1"
   id="Layer_1"
   x="0px"
   y="0px"
   viewBox="0 0 512 512"
   style="enable-background:new 0 0 512 512;"
   xml:space="preserve"
   sodipodi:docname="history.svg"
   inkscape:export-filename="/home/mahmood/git/bmi/Images/history.png"
   inkscape:export-xdpi="41.538399"
   inkscape:export-ydpi="41.538399"
   inkscape:version="0.92.1 unknown"><metadata
     id="metadata55"><rdf:RDF><cc:Work
         rdf:about=""><dc:format>image/svg+xml</dc:format><dc:type
           rdf:resource="http://purl.org/dc/dcmitype/StillImage" /></cc:Work></rdf:RDF></metadata><defs
     id="defs53" /><sodipodi:namedview
     pagecolor="#ffffff"
     bordercolor="#666666"
     borderopacity="1"
     objecttolerance="10"
     gridtolerance="10"
     guidetolerance="10"
     inkscape:pageopacity="0"
     inkscape:pageshadow="2"
     inkscape:window-width="1920"
     inkscape:window-height="1009"
     id="namedview51"
     showgrid="false"
     inkscape:zoom="0.4609375"
     inkscape:cx="-176.81356"
     inkscape:cy="256"
     inkscape:window-x="0"
     inkscape:window-y="34"
     inkscape:window-maximized="1"
     inkscape:current-layer="Layer_1" /><g
     id="g18"><g
       id="g16"><g
         id="g14"><path
           d="M384,477.867c2.185,0,4.369-0.836,6.033-2.5l51.2-51.2c1.604-1.596,2.5-3.772,2.5-6.033V76.8     c0-4.71-3.814-8.533-8.533-8.533H384c-4.719,0-8.533,3.823-8.533,8.533s3.814,8.533,8.533,8.533h42.667v329.267l-48.7,48.7     c-3.336,3.336-3.336,8.73,0,12.066C379.631,477.03,381.816,477.867,384,477.867z"
           id="path2" /><path
           d="M128,85.333c4.719,0,8.533-3.823,8.533-8.533s-3.814-8.533-8.533-8.533H76.8c-4.719,0-8.533,3.823-8.533,8.533v366.933     c0,18.825,15.309,34.133,34.133,34.133h247.467c4.719,0,8.533-3.823,8.533-8.533v-51.2c0-3.866,3.806-8.533,8.533-8.533h34.133     c4.719,0,8.533-3.823,8.533-8.533s-3.814-8.533-8.533-8.533h-34.133c-13.636,0-25.6,11.964-25.6,25.6V460.8H102.4     c-9.412,0-17.067-7.654-17.067-17.067v-358.4H128z"
           id="path4" /><path
           d="M256,34.133c-9.412,0-17.067,7.654-17.067,17.067c0,9.412,7.654,17.067,17.067,17.067     c9.412,0,17.067-7.654,17.067-17.067C273.067,41.788,265.412,34.133,256,34.133z"
           id="path6" /><path
           d="M435.2,34.133H384c-4.719,0-8.533,3.823-8.533,8.533c0,4.71,3.814,8.533,8.533,8.533h51.2     c12.442,0,25.6,13.158,25.6,25.6v392.533c0,12.442-13.158,25.6-25.6,25.6H76.8c-12.442,0-25.6-13.158-25.6-25.6V76.8     c0-12.442,13.158-25.6,25.6-25.6H128c4.719,0,8.533-3.823,8.533-8.533c0-4.71-3.814-8.533-8.533-8.533H76.8     c-21.931,0-42.667,20.736-42.667,42.667v392.533C34.133,491.264,54.869,512,76.8,512h358.4c21.931,0,42.667-20.736,42.667-42.667     V76.8C477.867,54.869,457.131,34.133,435.2,34.133z"
           id="path8" /><path
           d="M102.4,281.6c0,4.71,3.814,8.533,8.533,8.533h34.133c3.678,0,6.938-2.347,8.09-5.837l26.044-78.114l60.177,180.514     c1.135,3.413,4.284,5.743,7.885,5.837h0.205c3.507,0,6.673-2.15,7.953-5.444l52.753-135.654l16.99,33.98     c1.451,2.893,4.403,4.719,7.637,4.719h27.179C363.512,300.049,372.89,307.2,384,307.2c14.114,0,25.6-11.486,25.6-25.6     S398.114,256,384,256c-11.11,0-20.489,7.151-24.021,17.067h-21.905l-23.236-46.481c-1.51-3.021-4.881-4.779-8.03-4.71     c-3.371,0.162-6.34,2.287-7.56,5.436l-51.166,131.558L187.29,176.503c-1.152-3.49-4.412-5.837-8.09-5.837     s-6.929,2.347-8.09,5.837l-32.196,96.563h-27.981C106.214,273.067,102.4,276.89,102.4,281.6z M384,273.067     c4.71,0,8.533,3.831,8.533,8.533c0,4.702-3.823,8.533-8.533,8.533s-8.533-3.831-8.533-8.533     C375.467,276.898,379.29,273.067,384,273.067z"
           id="path10" /><path
           d="M162.133,102.4h187.733c4.719,0,8.533-3.823,8.533-8.533v-51.2c0-4.71-3.814-8.533-8.533-8.533h-45.594     C297.148,13.995,277.854,0,256,0s-41.148,13.995-48.273,34.133h-45.594c-4.719,0-8.533,3.823-8.533,8.533v51.2     C153.6,98.577,157.414,102.4,162.133,102.4z M170.667,51.2h43.529c4.053,0,7.552-2.859,8.354-6.835     c3.217-15.821,17.28-27.298,33.451-27.298s30.234,11.477,33.451,27.298c0.802,3.977,4.301,6.835,8.354,6.835h43.529v34.133     H170.667V51.2z"
           id="path12" /></g></g></g><g
     id="g20" /><g
     id="g22" /><g
     id="g24" /><g
     id="g26" /><g
     id="g28" /><g
     id="g30" /><g
     id="g32" /><g
     id="g34" /><g
     id="g36" /><g
     id="g38" /><g
     id="g40" /><g
     id="g42" /><g
     id="g44" /><g
     id="g46" /><g
     id="g48" /></svg>