<?xml version="1.0" encoding="UTF-8" standalone="no"?>
<!-- Generator: Adobe Illustrator 18.1.1, SVG Export Plug-In . SVG Version: 6.00 Build 0)  -->

<svg
   xmlns:dc="http://purl.org/dc/elements/1.1/"
   xmlns:cc="http://creativecommons.org/ns#"
   xmlns:rdf="http://www.w3.org/1999/02/22-rdf-syntax-ns#"
   xmlns:svg="http://www.w3.org/2000/svg"
   xmlns="http://www.w3.org/2000/svg"
   xmlns:sodipodi="http://sodipodi.sourceforge.net/DTD/sodipodi-0.dtd"
   xmlns:inkscape="http://www.inkscape.org/namespaces/inkscape"
   version="1.1"
   id="Capa_1"
   x="0px"
   y="0px"
   viewBox="0 0 32.218 32.218"
   style="enable-background:new 0 0 32.218 32.218;"
   xml:space="preserve"
   sodipodi:docname="star.svg"
   inkscape:version="0.92.1 unknown"
   inkscape:export-filename="/home/mahmood/git/bmi/Images/star.svg.png"
   inkscape:export-xdpi="141.45799"
   inkscape:export-ydpi="141.45799"><metadata
     id="metadata71"><rdf:RDF><cc:Work
         rdf:about=""><dc:format>image/svg+xml</dc:format><dc:type
           rdf:resource="http://purl.org/dc/dcmitype/StillImage" /></cc:Work></rdf:RDF></metadata><defs
     id="defs69" /><sodipodi:namedview
     pagecolor="#ffffff"
     bordercolor="#666666"
     borderopacity="1"
     objecttolerance="10"
     gridtolerance="10"
     guidetolerance="10"
     inkscape:pageopacity="0"
     inkscape:pageshadow="2"
     inkscape:window-width="1920"
     inkscape:window-height="1009"
     id="namedview67"
     showgrid="false"
     inkscape:zoom="7.3250981"
     inkscape:cx="-11.126131"
     inkscape:cy="16.108999"
     inkscape:window-x="0"
     inkscape:window-y="34"
     inkscape:window-maximized="1"
     inkscape:current-layer="g34" /><g
     id="g34"><path
       d="M32.143,12.403c-0.494-1.545-3.213-1.898-6.092-2.279c-1.578-0.207-3.371-0.441-3.912-0.842   c-0.545-0.398-1.305-2.035-1.977-3.482c-1.222-2.631-2.379-5.113-3.997-5.117l-0.03-0.005c-1.604,0.027-2.773,2.479-4.016,5.082   c-0.685,1.439-1.464,3.07-2.007,3.465C9.563,9.616,7.77,9.836,6.187,10.028c-2.876,0.35-5.599,0.678-6.107,2.215   s1.479,3.426,3.585,5.422c1.156,1.098,2.465,2.342,2.671,2.982s-0.143,2.416-0.448,3.977c-0.558,2.844-1.085,5.537,0.219,6.5   c0.312,0.223,0.704,0.336,1.167,0.326c1.331-0.021,3.246-1.057,5.097-2.061c1.387-0.758,2.96-1.613,3.66-1.621   c0.677,0,2.255,0.879,3.647,1.654c1.893,1.051,3.852,2.139,5.185,2.117c0.416-0.006,0.771-0.113,1.061-0.322   c1.312-0.945,0.812-3.637,0.285-6.492c-0.29-1.564-0.615-3.344-0.41-3.984c0.212-0.637,1.536-1.865,2.703-2.955   C30.627,15.809,32.633,13.948,32.143,12.403z"
       id="path2"
       style="fill:#86b300;fill-opacity:1" /><g
       id="g4" /><g
       id="g6" /><g
       id="g8" /><g
       id="g10" /><g
       id="g12" /><g
       id="g14" /><g
       id="g16" /><g
       id="g18" /><g
       id="g20" /><g
       id="g22" /><g
       id="g24" /><g
       id="g26" /><g
       id="g28" /><g
       id="g30" /><g
       id="g32" /></g><g
     id="g36" /><g
     id="g38" /><g
     id="g40" /><g
     id="g42" /><g
     id="g44" /><g
     id="g46" /><g
     id="g48" /><g
     id="g50" /><g
     id="g52" /><g
     id="g54" /><g
     id="g56" /><g
     id="g58" /><g
     id="g60" /><g
     id="g62" /><g
     id="g64" /></svg>