<?xml version="1.0" encoding="utf-8"?>
<!-- Svg Vector Icons : http://www.onlinewebfonts.com/icon -->
<!DOCTYPE svg PUBLIC "-//W3C//DTD SVG 1.1//EN" "http://www.w3.org/Graphics/SVG/1.1/DTD/svg11.dtd">
<svg version="1.1" xmlns="http://www.w3.org/2000/svg" xmlns:xlink="http://www.w3.org/1999/xlink" x="0px" y="0px" viewBox="0 0 1000 1000" enable-background="new 0 0 1000 1000" xml:space="preserve">
<metadata> Svg Vector Icons : http://www.onlinewebfonts.com/icon </metadata>
<g><path d="M876.8,160.3L739.7,25.1c-9.8-9.7-22.9-15.1-36.8-15.1c0,0,0,0,0,0H160c-28.9,0-52.4,23.5-52.4,52.4v875.2c0,28.9,23.5,52.4,52.4,52.4h680c28.9,0,52.4-23.5,52.4-52.4v-740C892.4,183.6,886.7,170,876.8,160.3z M838.6,177.9H722.7l-0.1-114.4L838.6,177.9z M840,950.6H160c-7.2,0-13-5.9-13-13V62.4c0-7.2,5.8-13,13-13h523.2l0.2,148.2c0,10.9,8.8,19.7,19.7,19.7h150v720.3C853.1,944.8,847.2,950.6,840,950.6z"/><path d="M742.1,298.1H584H425.9H267.8c-10.9,0-19.7,8.8-19.7,19.7v117.6v117.6v117.6v117.6c0,10.9,8.8,19.7,19.7,19.7h158.1H584h158.1c10.9,0,19.7-8.8,19.7-19.7V670.6V552.9V435.4V317.8C761.7,306.9,752.9,298.1,742.1,298.1z M722.4,533.3H603.7V455h118.7V533.3L722.4,533.3z M564.3,533.3H445.6V455h118.7V533.3L564.3,533.3z M406.2,533.3H287.5V455h118.7V533.3L406.2,533.3z M287.5,572.6h118.7v78.2H287.5V572.6z M445.6,572.6h118.7v78.2H445.6V572.6z M603.7,572.6h118.7v78.2H603.7V572.6z M722.4,415.7H603.7v-78.2h118.7V415.7z M564.3,415.7H445.6v-78.2h118.7V415.7z M287.5,337.4h118.7v78.2H287.5V337.4z M287.5,690.2h118.7v78.2H287.5V690.2z M445.6,690.2h118.7v78.2H445.6V690.2z M722.4,768.4H603.7v-78.2h118.7V768.4L722.4,768.4z"/></g>
</svg>