<?xml version="1.0" encoding="UTF-8" standalone="no"?>
<svg
   xmlns:dc="http://purl.org/dc/elements/1.1/"
   xmlns:cc="http://creativecommons.org/ns#"
   xmlns:rdf="http://www.w3.org/1999/02/22-rdf-syntax-ns#"
   xmlns:svg="http://www.w3.org/2000/svg"
   xmlns="http://www.w3.org/2000/svg"
   xmlns:sodipodi="http://sodipodi.sourceforge.net/DTD/sodipodi-0.dtd"
   xmlns:inkscape="http://www.inkscape.org/namespaces/inkscape"
   viewBox="0 0 240 240"
   version="1.1"
   id="svg22"
   sodipodi:docname="Telegram_logo.svg"
   inkscape:export-filename="/home/mahmood/git/bmi/Images/telegram.png"
   inkscape:export-xdpi="141.45799"
   inkscape:export-ydpi="141.45799"
   inkscape:version="0.92.1 unknown">
  <metadata
     id="metadata26">
    <rdf:RDF>
      <cc:Work
         rdf:about="">
        <dc:format>image/svg+xml</dc:format>
        <dc:type
           rdf:resource="http://purl.org/dc/dcmitype/StillImage" />
      </cc:Work>
    </rdf:RDF>
  </metadata>
  <sodipodi:namedview
     pagecolor="#ffffff"
     bordercolor="#666666"
     borderopacity="1"
     objecttolerance="10"
     gridtolerance="10"
     guidetolerance="10"
     inkscape:pageopacity="0"
     inkscape:pageshadow="2"
     inkscape:window-width="1920"
     inkscape:window-height="1009"
     id="namedview24"
     showgrid="false"
     inkscape:zoom="0.98333333"
     inkscape:cx="122.0339"
     inkscape:cy="120"
     inkscape:window-x="0"
     inkscape:window-y="34"
     inkscape:window-maximized="1"
     inkscape:current-layer="svg22" />
  <defs
     id="defs12">
    <linearGradient
       id="b"
       x1="0.6667"
       y1="0.1667"
       x2="0.4167"
       y2="0.75">
      <stop
         stop-color="#37aee2"
         offset="0"
         id="stop2" />
      <stop
         stop-color="#1e96c8"
         offset="1"
         id="stop4" />
    </linearGradient>
    <linearGradient
       id="w"
       x1="0.6597"
       y1="0.4369"
       x2="0.8512"
       y2="0.8024">
      <stop
         stop-color="#eff7fc"
         offset="0"
         id="stop7" />
      <stop
         stop-color="#fff"
         offset="1"
         id="stop9" />
    </linearGradient>
  </defs>
  <circle
     cx="120"
     cy="120"
     r="120"
     fill="url(#b)"
     id="circle14" />
  <path
     fill="#c8daea"
     d="m98 175c-3.8876 0-3.227-1.4679-4.5678-5.1695L82 132.2059 170 80"
     id="path16" />
  <path
     fill="#a9c9dd"
     d="m98 175c3 0 4.3255-1.372 6-3l16-15.558-19.958-12.035"
     id="path18" />
  <path
     fill="url(#w)"
     d="m100.04 144.41 48.36 35.729c5.5185 3.0449 9.5014 1.4684 10.876-5.1235l19.685-92.763c2.0154-8.0802-3.0801-11.745-8.3594-9.3482l-115.59 44.571c-7.8901 3.1647-7.8441 7.5666-1.4382 9.528l29.663 9.2583 68.673-43.325c3.2419-1.9659 6.2173-0.90899 3.7752 1.2584"
     id="path20" />
</svg>
