<?xml version="1.0" encoding="UTF-8" standalone="no"?>
<!-- Generator: Adobe Illustrator 19.0.0, SVG Export Plug-In . SVG Version: 6.00 Build 0)  -->

<svg
   xmlns:dc="http://purl.org/dc/elements/1.1/"
   xmlns:cc="http://creativecommons.org/ns#"
   xmlns:rdf="http://www.w3.org/1999/02/22-rdf-syntax-ns#"
   xmlns:svg="http://www.w3.org/2000/svg"
   xmlns="http://www.w3.org/2000/svg"
   xmlns:sodipodi="http://sodipodi.sourceforge.net/DTD/sodipodi-0.dtd"
   xmlns:inkscape="http://www.inkscape.org/namespaces/inkscape"
   version="1.1"
   id="Layer_1"
   x="0px"
   y="0px"
   viewBox="0 0 330 330"
   style="enable-background:new 0 0 330 330;"
   xml:space="preserve"
   sodipodi:docname="weight_scale.svg"
   inkscape:export-filename="/home/mahmood/git/BMI/Images/weight_scale.png"
   inkscape:export-xdpi="55.854519"
   inkscape:export-ydpi="55.854519"
   inkscape:version="0.92.1 unknown"><metadata
     id="metadata40"><rdf:RDF><cc:Work
         rdf:about=""><dc:format>image/svg+xml</dc:format><dc:type
           rdf:resource="http://purl.org/dc/dcmitype/StillImage" /></cc:Work></rdf:RDF></metadata><defs
     id="defs38" /><sodipodi:namedview
     pagecolor="#ffffff"
     bordercolor="#666666"
     borderopacity="1"
     objecttolerance="10"
     gridtolerance="10"
     guidetolerance="10"
     inkscape:pageopacity="0"
     inkscape:pageshadow="2"
     inkscape:window-width="1920"
     inkscape:window-height="1009"
     id="namedview36"
     showgrid="false"
     inkscape:zoom="2.4212121"
     inkscape:cx="165"
     inkscape:cy="165"
     inkscape:window-x="0"
     inkscape:window-y="34"
     inkscape:window-maximized="1"
     inkscape:current-layer="Layer_1" /><g
     id="XMLID_6_"
     style="fill:#000000;fill-opacity:1"><path
       id="XMLID_7_"
       d="M265.27,0.003c-0.191-0.004-0.354-0.004-0.516-0.001L65.724,0.013c-0.487-0.016-0.951-0.018-1.494,0.002   C28.805,0.428,0,29.565,0,65v200c0,35.841,29.159,65,65,65h200c35.841,0,65-29.159,65-65V65C330,29.289,300.992,0.166,265.27,0.003   z M300,265c0,19.299-15.701,35-35,35H65c-19.299,0-35-15.701-35-35V65c0-19.092,15.533-34.788,34.552-34.987   c0.146-0.001,0.292-0.004,0.447-0.008c0.156,0.004,0.325,0.007,0.531,0.008l199.363-0.011c0.061,0.001,0.126,0.001,0.181,0   C284.332,30.042,300,45.742,300,65V265z"
       style="fill:#000000;fill-opacity:1" /><path
       id="XMLID_10_"
       d="M165,60c-43.123,0-81.377,25.856-97.456,65.87c-2.241,5.575-0.938,11.95,3.312,16.199l33.538,33.537   C107.207,178.42,111.022,180,115,180h100c3.979,0,7.793-1.58,10.606-4.394l33.538-33.537c4.249-4.249,5.553-10.624,3.312-16.199   C246.377,85.856,208.123,60,165,60z M208.787,150H180v-14.999c0-8.284-6.716-15-15-15s-15,6.716-15,15V150h-28.787l-21.669-21.669   C112.69,104.77,137.455,90,165,90s52.311,14.77,65.456,38.331L208.787,150z"
       style="fill:#000000;fill-opacity:1" /></g><g
     id="g5" /><g
     id="g7" /><g
     id="g9" /><g
     id="g11" /><g
     id="g13" /><g
     id="g15" /><g
     id="g17" /><g
     id="g19" /><g
     id="g21" /><g
     id="g23" /><g
     id="g25" /><g
     id="g27" /><g
     id="g29" /><g
     id="g31" /><g
     id="g33" /></svg>